# xmcd CD database file
#
# Track frame offsets:
#	150
#	21694
#	43332
#	62701
#	84817
#	108817
#	126431
#	145798
#	166981
#	192376
#	210940
#	231067
#	256267
#	276230
#	297452
#	317618
#
# Disc length: 4571 seconds
#
# Revision: 0
# Processed by: cddbd v1.5.1PL0 Copyright (c) Steve Scherf et al.
# Submitted via: freeDB plugin v1.0
#
DISCID=ea11d910
DTITLE=Ayumi Hamasaki - A BEST
DYEAR=1900
DGENRE=Rock
TTITLE0=A Song for XX
TTITLE1=Trust
TTITLE2=Dpend on you
TTITLE3=LOVE ~Destiny~
TTITLE4=TO BE
TTITLE5=Boys and Girls
TTITLE6=Trauma
TTITLE7=End roll
TTITLE8=appears
TTITLE9=Fly high
TTITLE10=vogue
TTITLE11=Far away
TTITLE12=SEASONS
TTITLE13=SURREAL
TTITLE14=M
TTITLE15=Who...
EXTD=
EXTT0=
EXTT1=
EXTT2=
EXTT3=
EXTT4=
EXTT5=
EXTT6=
EXTT7=
EXTT8=
EXTT9=
EXTT10=
EXTT11=
EXTT12=
EXTT13=
EXTT14=
EXTT15=
PLAYORDER=
